<svg width="39" height="56" viewBox="0 0 39 56" fill="none" xmlns="http://www.w3.org/2000/svg">
<path d="M2.5603 1.18865L4.0603 2.68865L5.56032 4.28767V34.1449L2.5603 36.1886V1.18865Z" fill="white"/>
<path d="M33.5604 25.1888L38.5604 25.1888L2.56043 46.1887L2.56048 43.1888L33.5604 25.1888Z" fill="white"/>
<path d="M31.5604 16.1887L34.5604 16.1887L5.56037 34.1887L5.56042 31.1886L31.5604 16.1887Z" fill="white"/>
<path d="M22.5605 11.1887L22.5604 8.18879L34.5603 16.1888L31.5604 16.1888L22.5605 11.1887Z" fill="white"/>
<path d="M22.5604 19.1888L22.5604 16.1887L38.5604 25.1887L33.5604 25.1887L22.5604 19.1888Z" fill="white"/>
<path d="M13.5604 15.1887L16.5603 15.1888L16.5604 55.1887L13.5604 54.1887L13.5604 15.1887Z" fill="white"/>
<path d="M2.56032 1.18873L13.9219 7.3202L13.9218 10.3202L2.5603 4.18872L2.56032 1.18873Z" fill="white"/>
<path d="M13.5603 15.1887L22.5604 8.1888L22.5604 11.1887L16.5603 15.1887L13.5603 15.1887Z" fill="white"/>
</svg>
